<svg width="80" height="80" viewBox="0 0 80 80" fill="none" xmlns="http://www.w3.org/2000/svg">
<circle cx="40" cy="40" r="32" fill="#292929"/>
<path d="M37.3727 29.9953L41.1207 28.125H54.25V35.25H45.7297C44.1043 34.1293 42.1301 33.4688 40 33.4688C37.8699 33.4688 35.9031 34.1293 34.2703 35.25H25.75V30.5H35.25C35.9848 30.5 36.7121 30.3293 37.3727 29.9953ZM21 30.5V51.875C21 54.4949 23.1301 56.625 25.75 56.625H54.25C56.8699 56.625 59 54.4949 59 51.875V28.125C59 25.5051 56.8699 23.375 54.25 23.375H41.1207C40.3859 23.375 39.6586 23.5457 38.998 23.8797L35.25 25.75H32.875V24.5625C32.875 23.9094 32.3406 23.375 31.6875 23.375H26.9375C26.2844 23.375 25.75 23.9094 25.75 24.5625V25.75C23.1301 25.75 21 27.8801 21 30.5ZM33.4688 43.5625C33.4688 41.8303 34.1569 40.1691 35.3817 38.9442C36.6066 37.7194 38.2678 37.0312 40 37.0312C41.7322 37.0312 43.3934 37.7194 44.6183 38.9442C45.8431 40.1691 46.5312 41.8303 46.5312 43.5625C46.5312 45.2947 45.8431 46.9559 44.6183 48.1808C43.3934 49.4056 41.7322 50.0938 40 50.0938C38.2678 50.0938 36.6066 49.4056 35.3817 48.1808C34.1569 46.9559 33.4688 45.2947 33.4688 43.5625Z" fill="white"/>
</svg>
