<svg width="80" height="80" viewBox="0 0 80 80" fill="none" xmlns="http://www.w3.org/2000/svg">
<circle cx="40" cy="40" r="32" fill="#292929"/>
<g clip-path="url(#clip0_1_15)">
<path d="M51.2627 51.2693H46.524V43.844C46.524 42.0733 46.488 39.7947 44.0547 39.7947C41.584 39.7947 41.2067 41.7213 41.2067 43.7133V51.2693H36.468V36H41.02V38.0813H41.0813C41.7173 36.8813 43.264 35.6147 45.5747 35.6147C50.376 35.6147 51.264 38.7747 51.264 42.888L51.2627 51.2693ZM31.116 33.9107C29.5907 33.9107 28.3653 32.676 28.3653 31.1573C28.3653 29.64 29.592 28.4067 31.116 28.4067C32.636 28.4067 33.868 29.64 33.868 31.1573C33.868 32.676 32.6347 33.9107 31.116 33.9107ZM33.492 51.2693H28.74V36H33.492V51.2693ZM53.6333 24H26.3613C25.056 24 24 25.032 24 26.3053V53.6947C24 54.9693 25.056 56 26.3613 56H53.6293C54.9333 56 56 54.9693 56 53.6947V26.3053C56 25.032 54.9333 24 53.6293 24H53.6333Z" fill="white"/>
</g>
<defs>
<clipPath id="clip0_1_15">
<rect width="32" height="32" fill="white" transform="translate(24 24)"/>
</clipPath>
</defs>
</svg>
