<svg width="80" height="80" viewBox="0 0 80 80" fill="none" xmlns="http://www.w3.org/2000/svg">
<circle cx="40" cy="40" r="32" fill="#292929"/>
<g clip-path="url(#clip0_1_19)">
<path d="M49.75 40C49.75 42.2547 49.6281 44.4281 49.4148 46.5H30.5852C30.3617 44.4281 30.25 42.2547 30.25 40C30.25 37.7453 30.3719 35.5719 30.5852 33.5H49.4148C49.6383 35.5719 49.75 37.7453 49.75 40ZM52.675 33.5H65.1773C65.7156 35.582 66 37.7555 66 40C66 42.2445 65.7156 44.418 65.1773 46.5H52.675C52.8883 44.4078 53 42.2344 53 40C53 37.7656 52.8883 35.5922 52.675 33.5ZM64.1109 30.25H52.2586C51.243 23.7602 49.232 18.3266 46.6422 14.8531C54.5945 16.9555 61.0641 22.7242 64.1008 30.25H64.1109ZM48.968 30.25H31.032C31.6516 26.5531 32.6062 23.2828 33.7742 20.632C34.8406 18.2352 36.0289 16.4984 37.1766 15.4016C38.3141 14.325 39.2586 14 40 14C40.7414 14 41.6859 14.325 42.8234 15.4016C43.9711 16.4984 45.1594 18.2352 46.2258 20.632C47.4039 23.2727 48.3484 26.543 48.968 30.25ZM27.7414 30.25H15.8891C18.9359 22.7242 25.3953 16.9555 33.3578 14.8531C30.768 18.3266 28.757 23.7602 27.7414 30.25ZM14.8227 33.5H27.325C27.1117 35.5922 27 37.7656 27 40C27 42.2344 27.1117 44.4078 27.325 46.5H14.8227C14.2844 44.418 14 42.2445 14 40C14 37.7555 14.2844 35.582 14.8227 33.5ZM33.7742 59.3578C32.5961 56.7172 31.6516 53.4469 31.032 49.75H48.968C48.3484 53.4469 47.3937 56.7172 46.2258 59.3578C45.1594 61.7547 43.9711 63.4914 42.8234 64.5883C41.6859 65.675 40.7414 66 40 66C39.2586 66 38.3141 65.675 37.1766 64.5984C36.0289 63.5016 34.8406 61.7648 33.7742 59.368V59.3578ZM27.7414 49.75C28.757 56.2398 30.768 61.6734 33.3578 65.1469C25.3953 63.0445 18.9359 57.2758 15.8891 49.75H27.7414ZM64.1109 49.75C61.0641 57.2758 54.6047 63.0445 46.6523 65.1469C49.2422 61.6734 51.243 56.2398 52.2687 49.75H64.1109Z" fill="white"/>
</g>
<defs>
<clipPath id="clip0_1_19">
<rect width="52" height="52" fill="white" transform="translate(14 14)"/>
</clipPath>
</defs>
</svg>
